<?xml version="1.0" encoding="UTF-8" standalone="no"?>
<!DOCTYPE svg PUBLIC "-//W3C//DTD SVG 1.1//EN"
 "http://www.w3.org/Graphics/SVG/1.1/DTD/svg11.dtd">
<!-- Generated by graphviz version 2.43.0 (0)
 -->
<!-- Title: class_diagram Pages: 1 -->
<svg width="977pt" height="972pt"
 viewBox="0.00 0.00 976.60 971.60" xmlns="http://www.w3.org/2000/svg" xmlns:xlink="http://www.w3.org/1999/xlink">
<g id="graph0" class="graph" transform="scale(1 1) rotate(0) translate(28.8 942.8)">
<title>class_diagram</title>
<polygon fill="white" stroke="transparent" points="-28.8,28.8 -28.8,-942.8 947.8,-942.8 947.8,28.8 -28.8,28.8"/>
<text text-anchor="start" x="273" y="-898.2" font-family="Helvetica,sans-Serif" font-weight="bold" font-size="16.00">Class Diagram — Domain Model (Phase 1)</text>
<!-- Etudiant -->
<g id="node1" class="node">
<title>Etudiant</title>
<polygon fill="#3730a3" stroke="transparent" points="14.5,-673 14.5,-698 221.5,-698 221.5,-673 14.5,-673"/>
<polygon fill="none" stroke="black" points="14.5,-673 14.5,-698 221.5,-698 221.5,-673 14.5,-673"/>
<text text-anchor="start" x="42.5" y="-682.8" font-family="Helvetica,sans-Serif" font-style="italic" font-size="14.00" fill="white">«SQLAlchemy Entity»</text>
<polygon fill="#e0e7ff" stroke="transparent" points="14.5,-648 14.5,-673 221.5,-673 221.5,-648 14.5,-648"/>
<polygon fill="none" stroke="black" points="14.5,-648 14.5,-673 221.5,-673 221.5,-648 14.5,-648"/>
<text text-anchor="start" x="84.5" y="-657.8" font-family="Helvetica,sans-Serif" font-weight="bold" font-size="14.00">Etudiant</text>
<polygon fill="none" stroke="black" points="14.5,-572 14.5,-648 221.5,-648 221.5,-572 14.5,-572"/>
<text text-anchor="start" x="19.5" y="-635" font-family="Helvetica,sans-Serif" font-size="10.00">&#45; id : int [PK]</text>
<text text-anchor="start" x="19.5" y="-624" font-family="Helvetica,sans-Serif" font-size="10.00">&#45; nom_complet : str</text>
<text text-anchor="start" x="19.5" y="-613" font-family="Helvetica,sans-Serif" font-size="10.00">&#45; email : str [unique]</text>
<text text-anchor="start" x="19.5" y="-602" font-family="Helvetica,sans-Serif" font-size="10.00">&#45; mot_de_passe : str(255) &#160;// bcrypt hash</text>
<text text-anchor="start" x="19.5" y="-591" font-family="Helvetica,sans-Serif" font-size="10.00">&#45; niveau_actuel : str = &#39;Débutant&#39;</text>
<text text-anchor="start" x="19.5" y="-580" font-family="Helvetica,sans-Serif" font-size="10.00">&#45; is_active : bool = True</text>
<polygon fill="none" stroke="black" points="14.5,-540 14.5,-572 221.5,-572 221.5,-540 14.5,-540"/>
<text text-anchor="start" x="19.5" y="-559" font-family="Helvetica,sans-Serif" font-size="10.00">+ verify_password(pwd) : bool</text>
<text text-anchor="start" x="19.5" y="-548" font-family="Helvetica,sans-Serif" font-size="10.00">+ to_response() : EtudiantResponse</text>
</g>
<!-- ConceptMastery -->
<g id="node2" class="node">
<title>ConceptMastery</title>
<polygon fill="#3730a3" stroke="transparent" points="342,-664 342,-689 569,-689 569,-664 342,-664"/>
<polygon fill="none" stroke="black" points="342,-664 342,-689 569,-689 569,-664 342,-664"/>
<text text-anchor="start" x="380" y="-673.8" font-family="Helvetica,sans-Serif" font-style="italic" font-size="14.00" fill="white">«SQLAlchemy Entity»</text>
<polygon fill="#e0e7ff" stroke="transparent" points="342,-639 342,-664 569,-664 569,-639 342,-639"/>
<polygon fill="none" stroke="black" points="342,-639 342,-664 569,-664 569,-639 342,-639"/>
<text text-anchor="start" x="390.5" y="-648.8" font-family="Helvetica,sans-Serif" font-weight="bold" font-size="14.00">ConceptMastery</text>
<polygon fill="none" stroke="black" points="342,-563 342,-639 569,-639 569,-563 342,-563"/>
<text text-anchor="start" x="347" y="-626" font-family="Helvetica,sans-Serif" font-size="10.00">&#45; id : int [PK]</text>
<text text-anchor="start" x="347" y="-615" font-family="Helvetica,sans-Serif" font-size="10.00">&#45; etudiant_id : int [FK → Etudiant]</text>
<text text-anchor="start" x="347" y="-604" font-family="Helvetica,sans-Serif" font-size="10.00">&#45; concept_neo4j_id : str(255) &#160;// link to Neo4j</text>
<text text-anchor="start" x="347" y="-593" font-family="Helvetica,sans-Serif" font-size="10.00">&#45; niveau_maitrise : float (0&#45;100)</text>
<text text-anchor="start" x="347" y="-582" font-family="Helvetica,sans-Serif" font-size="10.00">&#45; derniere_mise_a_jour : datetime</text>
<text text-anchor="start" x="347" y="-571" font-family="Helvetica,sans-Serif" font-size="10.00"> &#160;UNIQUE(etudiant_id, concept_neo4j_id)</text>
<polygon fill="none" stroke="black" points="342,-542 342,-563 569,-563 569,-542 342,-542"/>
<text text-anchor="start" x="347" y="-550" font-family="Helvetica,sans-Serif" font-size="10.00">+ update(new_score) : void</text>
</g>
<!-- Etudiant&#45;&gt;ConceptMastery -->
<g id="edge1" class="edge">
<title>Etudiant&#45;&gt;ConceptMastery</title>
<path fill="none" stroke="#1f2937" d="M229.29,-618.01C258.69,-617.75 290.74,-617.46 321.19,-617.19"/>
<polygon fill="none" stroke="#1f2937" points="321.22,-617.19 327.18,-613.13 333.22,-617.08 327.25,-621.13 321.22,-617.19"/>
<text text-anchor="middle" x="283" y="-620" font-family="Times,serif" font-size="10.00">1 &#160;&#160;&#160;*</text>
</g>
<!-- QuizResult -->
<g id="node4" class="node">
<title>QuizResult</title>
<polygon fill="#3730a3" stroke="transparent" points="369,-459 369,-484 541,-484 541,-459 369,-459"/>
<polygon fill="none" stroke="black" points="369,-459 369,-484 541,-484 541,-459 369,-459"/>
<text text-anchor="start" x="379.5" y="-468.8" font-family="Helvetica,sans-Serif" font-style="italic" font-size="14.00" fill="white">«SQLAlchemy Entity»</text>
<polygon fill="#e0e7ff" stroke="transparent" points="369,-434 369,-459 541,-459 541,-434 369,-434"/>
<polygon fill="none" stroke="black" points="369,-434 369,-459 541,-459 541,-434 369,-434"/>
<text text-anchor="start" x="412.5" y="-443.8" font-family="Helvetica,sans-Serif" font-weight="bold" font-size="14.00">QuizResult</text>
<polygon fill="none" stroke="black" points="369,-347 369,-434 541,-434 541,-347 369,-347"/>
<text text-anchor="start" x="374" y="-421" font-family="Helvetica,sans-Serif" font-size="10.00">&#45; id : int [PK]</text>
<text text-anchor="start" x="374" y="-410" font-family="Helvetica,sans-Serif" font-size="10.00">&#45; etudiant_id : int [FK → Etudiant]</text>
<text text-anchor="start" x="374" y="-399" font-family="Helvetica,sans-Serif" font-size="10.00">&#45; quiz_id : int [FK → Quiz]</text>
<text text-anchor="start" x="374" y="-388" font-family="Helvetica,sans-Serif" font-size="10.00">&#45; score : float (0&#45;100)</text>
<text text-anchor="start" x="374" y="-377" font-family="Helvetica,sans-Serif" font-size="10.00">&#45; temps_reponse : int &#160;// seconds</text>
<text text-anchor="start" x="374" y="-366" font-family="Helvetica,sans-Serif" font-size="10.00">&#45; reponses : JSON</text>
<text text-anchor="start" x="374" y="-355" font-family="Helvetica,sans-Serif" font-size="10.00">&#45; date_tentative : datetime</text>
<polygon fill="none" stroke="black" points="369,-337 369,-347 541,-347 541,-337 369,-337"/>
</g>
<!-- Etudiant&#45;&gt;QuizResult -->
<g id="edge2" class="edge">
<title>Etudiant&#45;&gt;QuizResult</title>
<path fill="none" stroke="#1f2937" d="M229.29,-550.32C268.28,-526.14 311.93,-499.08 350.32,-475.28"/>
<polygon fill="none" stroke="#1f2937" points="350.8,-474.98 353.79,-468.42 360.99,-468.66 358,-475.22 350.8,-474.98"/>
<text text-anchor="middle" x="283" y="-524" font-family="Times,serif" font-size="10.00">1 &#160;&#160;&#160;*</text>
</g>
<!-- TutorSession -->
<g id="node5" class="node">
<title>TutorSession</title>
<polygon fill="#3730a3" stroke="transparent" points="369,-859 369,-884 541,-884 541,-859 369,-859"/>
<polygon fill="none" stroke="black" points="369,-859 369,-884 541,-884 541,-859 369,-859"/>
<text text-anchor="start" x="379.5" y="-868.8" font-family="Helvetica,sans-Serif" font-style="italic" font-size="14.00" fill="white">«SQLAlchemy Entity»</text>
<polygon fill="#e0e7ff" stroke="transparent" points="369,-834 369,-859 541,-859 541,-834 369,-834"/>
<polygon fill="none" stroke="black" points="369,-834 369,-859 541,-859 541,-834 369,-834"/>
<text text-anchor="start" x="404" y="-843.8" font-family="Helvetica,sans-Serif" font-weight="bold" font-size="14.00">TutorSession</text>
<polygon fill="none" stroke="black" points="369,-769 369,-834 541,-834 541,-769 369,-769"/>
<text text-anchor="start" x="374" y="-821" font-family="Helvetica,sans-Serif" font-size="10.00">&#45; id : int [PK]</text>
<text text-anchor="start" x="374" y="-810" font-family="Helvetica,sans-Serif" font-size="10.00">&#45; etudiant_id : int [FK → Etudiant]</text>
<text text-anchor="start" x="374" y="-799" font-family="Helvetica,sans-Serif" font-size="10.00">&#45; concept_id : str? &#160;// Neo4j ID</text>
<text text-anchor="start" x="374" y="-788" font-family="Helvetica,sans-Serif" font-size="10.00">&#45; created_at : datetime</text>
<text text-anchor="start" x="374" y="-777" font-family="Helvetica,sans-Serif" font-size="10.00">&#45; updated_at : datetime</text>
<polygon fill="none" stroke="black" points="369,-748 369,-769 541,-769 541,-748 369,-748"/>
<text text-anchor="start" x="374" y="-756" font-family="Helvetica,sans-Serif" font-size="10.00">+ add_message(msg) : void</text>
</g>
<!-- Etudiant&#45;&gt;TutorSession -->
<g id="edge4" class="edge">
<title>Etudiant&#45;&gt;TutorSession</title>
<path fill="none" stroke="#1f2937" d="M229.29,-684.05C268.28,-706.95 311.93,-732.58 350.32,-755.12"/>
<polygon fill="none" stroke="#1f2937" points="350.65,-755.31 357.85,-754.9 360.99,-761.39 353.8,-761.8 350.65,-755.31"/>
<text text-anchor="middle" x="283" y="-720" font-family="Times,serif" font-size="10.00">1 &#160;&#160;&#160;*</text>
</g>
<!-- Concept -->
<g id="node7" class="node">
<title>Concept</title>
<polygon fill="#6d28d9" stroke="transparent" points="769,-293 769,-318 911,-318 911,-293 769,-293"/>
<polygon fill="none" stroke="black" points="769,-293 769,-318 911,-318 911,-293 769,-293"/>
<text text-anchor="start" x="790.5" y="-302.8" font-family="Helvetica,sans-Serif" font-style="italic" font-size="14.00" fill="white">«Neo4j Node»</text>
<polygon fill="#ddd6fe" stroke="transparent" points="769,-268 769,-293 911,-293 911,-268 769,-268"/>
<polygon fill="none" stroke="black" points="769,-268 769,-293 911,-293 911,-268 769,-268"/>
<text text-anchor="start" x="807.5" y="-277.8" font-family="Helvetica,sans-Serif" font-weight="bold" font-size="14.00">Concept</text>
<polygon fill="none" stroke="black" points="769,-214 769,-268 911,-268 911,-214 769,-214"/>
<text text-anchor="start" x="774" y="-255" font-family="Helvetica,sans-Serif" font-size="10.00">&#45; id : str [PK]</text>
<text text-anchor="start" x="774" y="-244" font-family="Helvetica,sans-Serif" font-size="10.00">&#45; name : str</text>
<text text-anchor="start" x="774" y="-233" font-family="Helvetica,sans-Serif" font-size="10.00">&#45; difficulty : str</text>
<text text-anchor="start" x="774" y="-222" font-family="Helvetica,sans-Serif" font-size="10.00">&#45; learning_objectives : [str]</text>
<polygon fill="none" stroke="black" points="769,-204 769,-214 911,-214 911,-204 769,-204"/>
</g>
<!-- ConceptMastery&#45;&gt;Concept -->
<g id="edge5" class="edge">
<title>ConceptMastery&#45;&gt;Concept</title>
<path fill="none" stroke="#dc2626" stroke-dasharray="5,2" d="M551.33,-538.23C560.76,-530.15 570.13,-521.97 579,-514 646.34,-453.49 720.03,-381.17 771.7,-329.38"/>
<polygon fill="#dc2626" stroke="#dc2626" points="778.85,-322.21 774.98,-332.47 775.32,-325.75 771.79,-329.29 771.79,-329.29 771.79,-329.29 775.32,-325.75 768.6,-326.12 778.85,-322.21 778.85,-322.21"/>
<text text-anchor="middle" x="670" y="-492.8" font-family="Times,serif" font-size="9.00" fill="#dc2626">references</text>
<text text-anchor="middle" x="670" y="-482.8" font-family="Times,serif" font-size="9.00" fill="#dc2626">(by string id)</text>
</g>
<!-- Quiz -->
<g id="node3" class="node">
<title>Quiz</title>
<polygon fill="#3730a3" stroke="transparent" points="8.5,-456 8.5,-481 227.5,-481 227.5,-456 8.5,-456"/>
<polygon fill="none" stroke="black" points="8.5,-456 8.5,-481 227.5,-481 227.5,-456 8.5,-456"/>
<text text-anchor="start" x="42.5" y="-465.8" font-family="Helvetica,sans-Serif" font-style="italic" font-size="14.00" fill="white">«SQLAlchemy Entity»</text>
<polygon fill="#e0e7ff" stroke="transparent" points="8.5,-431 8.5,-456 227.5,-456 227.5,-431 8.5,-431"/>
<polygon fill="none" stroke="black" points="8.5,-431 8.5,-456 227.5,-456 227.5,-431 8.5,-431"/>
<text text-anchor="start" x="100.5" y="-440.8" font-family="Helvetica,sans-Serif" font-weight="bold" font-size="14.00">Quiz</text>
<polygon fill="none" stroke="black" points="8.5,-355 8.5,-431 227.5,-431 227.5,-355 8.5,-355"/>
<text text-anchor="start" x="13.5" y="-418" font-family="Helvetica,sans-Serif" font-size="10.00">&#45; id : int [PK]</text>
<text text-anchor="start" x="13.5" y="-407" font-family="Helvetica,sans-Serif" font-size="10.00">&#45; titre : str(255)</text>
<text text-anchor="start" x="13.5" y="-396" font-family="Helvetica,sans-Serif" font-size="10.00">&#45; module : str(255) [indexed]</text>
<text text-anchor="start" x="13.5" y="-385" font-family="Helvetica,sans-Serif" font-size="10.00">&#45; difficulte : str(50) &#160;// facile|moyen|difficile</text>
<text text-anchor="start" x="13.5" y="-374" font-family="Helvetica,sans-Serif" font-size="10.00">&#45; questions : JSON</text>
<text text-anchor="start" x="13.5" y="-363" font-family="Helvetica,sans-Serif" font-size="10.00">&#45; date_creation : datetime</text>
<polygon fill="none" stroke="black" points="8.5,-334 8.5,-355 227.5,-355 227.5,-334 8.5,-334"/>
<text text-anchor="start" x="13.5" y="-342" font-family="Helvetica,sans-Serif" font-size="10.00">+ grade(answers) : float</text>
</g>
<!-- Quiz&#45;&gt;QuizResult -->
<g id="edge3" class="edge">
<title>Quiz&#45;&gt;QuizResult</title>
<path fill="none" stroke="#1f2937" d="M235.37,-409.05C272.24,-409.37 312.73,-409.74 348.74,-410.06"/>
<polygon fill="none" stroke="#1f2937" points="348.77,-410.06 354.8,-406.11 360.77,-410.17 354.73,-414.11 348.77,-410.06"/>
<text text-anchor="middle" x="283" y="-413" font-family="Times,serif" font-size="10.00">1 &#160;&#160;&#160;*</text>
</g>
<!-- TutorSession&#45;&gt;Concept -->
<g id="edge6" class="edge">
<title>TutorSession&#45;&gt;Concept</title>
<path fill="none" stroke="#dc2626" stroke-dasharray="5,2" d="M549.22,-747.27C559.67,-738.19 569.83,-728.67 579,-719 690.25,-601.64 771.88,-427.84 811.72,-331.6"/>
<polygon fill="#dc2626" stroke="#dc2626" points="815.56,-322.25 815.92,-333.21 813.66,-326.87 811.76,-331.5 811.76,-331.5 811.76,-331.5 813.66,-326.87 807.59,-329.79 815.56,-322.25 815.56,-322.25"/>
<text text-anchor="middle" x="670" y="-678.8" font-family="Times,serif" font-size="9.00" fill="#dc2626">references</text>
</g>
<!-- Module -->
<g id="node6" class="node">
<title>Module</title>
<polygon fill="#6d28d9" stroke="transparent" points="401,-254 401,-279 510,-279 510,-254 401,-254"/>
<polygon fill="none" stroke="black" points="401,-254 401,-279 510,-279 510,-254 401,-254"/>
<text text-anchor="start" x="406" y="-263.8" font-family="Helvetica,sans-Serif" font-style="italic" font-size="14.00" fill="white">«Neo4j Node»</text>
<polygon fill="#ddd6fe" stroke="transparent" points="401,-229 401,-254 510,-254 510,-229 401,-229"/>
<polygon fill="none" stroke="black" points="401,-229 401,-254 510,-254 510,-229 401,-229"/>
<text text-anchor="start" x="426.5" y="-238.8" font-family="Helvetica,sans-Serif" font-weight="bold" font-size="14.00">Module</text>
<polygon fill="none" stroke="black" points="401,-186 401,-229 510,-229 510,-186 401,-186"/>
<text text-anchor="start" x="406" y="-216" font-family="Helvetica,sans-Serif" font-size="10.00">&#45; id : str [PK]</text>
<text text-anchor="start" x="406" y="-205" font-family="Helvetica,sans-Serif" font-size="10.00">&#45; name : str</text>
<text text-anchor="start" x="406" y="-194" font-family="Helvetica,sans-Serif" font-size="10.00">&#45; order : int</text>
<polygon fill="none" stroke="black" points="401,-176 401,-186 510,-186 510,-176 401,-176"/>
</g>
<!-- Module&#45;&gt;Concept -->
<g id="edge7" class="edge">
<title>Module&#45;&gt;Concept</title>
<path fill="none" stroke="#6d28d9" d="M517.54,-233.3C580.52,-238.73 679.01,-247.22 750.39,-253.36"/>
<polygon fill="#6d28d9" stroke="#6d28d9" points="750.45,-256.88 760.71,-254.25 751.05,-249.91 750.45,-256.88"/>
<text text-anchor="middle" x="670" y="-254" font-family="Times,serif" font-size="10.00" fill="#6d28d9">COVERS (15)</text>
</g>
<!-- Concept&#45;&gt;Concept -->
<g id="edge8" class="edge">
<title>Concept&#45;&gt;Concept</title>
<path fill="none" stroke="#6d28d9" d="M808.56,-322.08C805.78,-348.91 816.26,-372 840,-372 860.68,-372 871.3,-354.48 871.85,-332.23"/>
<polygon fill="#6d28d9" stroke="#6d28d9" points="875.34,-331.93 871.44,-322.08 868.35,-332.21 875.34,-331.93"/>
<text text-anchor="middle" x="840" y="-375" font-family="Times,serif" font-size="10.00" fill="#6d28d9">REQUIRES (14)</text>
</g>
<!-- Resource -->
<g id="node8" class="node">
<title>Resource</title>
<polygon fill="#6d28d9" stroke="transparent" points="339,-93 339,-118 571,-118 571,-93 339,-93"/>
<polygon fill="none" stroke="black" points="339,-93 339,-118 571,-118 571,-93 339,-93"/>
<text text-anchor="start" x="405.5" y="-102.8" font-family="Helvetica,sans-Serif" font-style="italic" font-size="14.00" fill="white">«Neo4j Node»</text>
<polygon fill="#ddd6fe" stroke="transparent" points="339,-68 339,-93 571,-93 571,-68 339,-68"/>
<polygon fill="none" stroke="black" points="339,-68 339,-93 571,-93 571,-68 339,-68"/>
<text text-anchor="start" x="418.5" y="-77.8" font-family="Helvetica,sans-Serif" font-weight="bold" font-size="14.00">Resource</text>
<polygon fill="none" stroke="black" points="339,-14 339,-68 571,-68 571,-14 339,-14"/>
<text text-anchor="start" x="344" y="-55" font-family="Helvetica,sans-Serif" font-size="10.00">&#45; id : str [PK]</text>
<text text-anchor="start" x="344" y="-44" font-family="Helvetica,sans-Serif" font-size="10.00">&#45; type : str &#160;// pdf | video | notebook | exercise</text>
<text text-anchor="start" x="344" y="-33" font-family="Helvetica,sans-Serif" font-size="10.00">&#45; url : str</text>
<text text-anchor="start" x="344" y="-22" font-family="Helvetica,sans-Serif" font-size="10.00">&#45; difficulty : str</text>
<polygon fill="none" stroke="black" points="339,-4 339,-14 571,-14 571,-4 339,-4"/>
</g>
<!-- Resource&#45;&gt;Concept -->
<g id="edge9" class="edge">
<title>Resource&#45;&gt;Concept</title>
<path fill="none" stroke="#6d28d9" d="M572.99,-122.09C630.6,-152.17 698.86,-187.82 751.81,-215.47"/>
<polygon fill="#6d28d9" stroke="#6d28d9" points="750.35,-218.66 760.84,-220.18 753.59,-212.45 750.35,-218.66"/>
<text text-anchor="middle" x="670" y="-200" font-family="Times,serif" font-size="10.00" fill="#6d28d9">REMEDIATES_TO (8)</text>
</g>
</g>
</svg>
