<?xml version="1.0" encoding="UTF-8" standalone="no"?>
<!DOCTYPE svg PUBLIC "-//W3C//DTD SVG 1.1//EN"
 "http://www.w3.org/Graphics/SVG/1.1/DTD/svg11.dtd">
<!-- Generated by graphviz version 2.43.0 (0)
 -->
<!-- Title: deployment Pages: 1 -->
<svg width="736pt" height="669pt"
 viewBox="0.00 0.00 735.60 669.10" xmlns="http://www.w3.org/2000/svg" xmlns:xlink="http://www.w3.org/1999/xlink">
<g id="graph0" class="graph" transform="scale(1 1) rotate(0) translate(28.8 640.3)">
<title>deployment</title>
<polygon fill="white" stroke="transparent" points="-28.8,28.8 -28.8,-640.3 706.8,-640.3 706.8,28.8 -28.8,28.8"/>
<text text-anchor="start" x="152.5" y="-595.7" font-family="Helvetica,sans-Serif" font-weight="bold" font-size="16.00">Deployment Diagram — Phase 1 Topology</text>
<g id="clust1" class="cluster">
<title>cluster_dev</title>
<path fill="#f3f4f6" stroke="#374151" d="M20,-8C20,-8 400,-8 400,-8 406,-8 412,-14 412,-20 412,-20 412,-565.5 412,-565.5 412,-571.5 406,-577.5 400,-577.5 400,-577.5 20,-577.5 20,-577.5 14,-577.5 8,-571.5 8,-565.5 8,-565.5 8,-20 8,-20 8,-14 14,-8 20,-8"/>
<text text-anchor="middle" x="210" y="-560.7" font-family="Helvetica,sans-Serif" font-weight="bold" font-size="16.00">«device» Developer Laptop (Windows 11)</text>
</g>
<g id="clust2" class="cluster">
<title>cluster_docker</title>
<path fill="#dbeafe" stroke="#1e40af" d="M28,-16C28,-16 392,-16 392,-16 398,-16 404,-22 404,-28 404,-28 404,-428 404,-428 404,-434 398,-440 392,-440 392,-440 28,-440 28,-440 22,-440 16,-434 16,-428 16,-428 16,-28 16,-28 16,-22 22,-16 28,-16"/>
<text text-anchor="middle" x="210" y="-423.2" font-family="Helvetica,sans-Serif" font-weight="bold" font-size="16.00">«execution env» Docker Engine</text>
<text text-anchor="middle" x="210" y="-405.2" font-family="Helvetica,sans-Serif" font-weight="bold" font-size="16.00">(docker/docker&#45;compose.yml)</text>
</g>
<g id="clust3" class="cluster">
<title>cluster_ci</title>
<path fill="#f5f5f4" stroke="#78716c" d="M432,-289.5C432,-289.5 658,-289.5 658,-289.5 664,-289.5 670,-295.5 670,-301.5 670,-301.5 670,-432.5 670,-432.5 670,-438.5 664,-444.5 658,-444.5 658,-444.5 432,-444.5 432,-444.5 426,-444.5 420,-438.5 420,-432.5 420,-432.5 420,-301.5 420,-301.5 420,-295.5 426,-289.5 432,-289.5"/>
<text text-anchor="middle" x="545" y="-427.7" font-family="Helvetica,sans-Serif" font-weight="bold" font-size="16.00">«cloud» GitHub Actions CI</text>
</g>
<!-- browser -->
<g id="node1" class="node">
<title>browser</title>
<polygon fill="#fef9c3" stroke="#854d0e" points="397,-543.5 207,-543.5 203,-539.5 203,-490.5 393,-490.5 397,-494.5 397,-543.5"/>
<polyline fill="none" stroke="#854d0e" points="393,-539.5 203,-539.5 "/>
<polyline fill="none" stroke="#854d0e" points="393,-539.5 393,-490.5 "/>
<polyline fill="none" stroke="#854d0e" points="393,-539.5 397,-543.5 "/>
<text text-anchor="middle" x="300" y="-528.3" font-family="Helvetica,sans-Serif" font-size="14.00">«execution env»</text>
<text text-anchor="middle" x="300" y="-513.3" font-family="Helvetica,sans-Serif" font-size="14.00">Browser</text>
<text text-anchor="middle" x="300" y="-498.3" font-family="Helvetica,sans-Serif" font-size="14.00">(Chrome, :5173 or :8080)</text>
</g>
<!-- frontend -->
<g id="node3" class="node">
<title>frontend</title>
<polygon fill="#a7f3d0" stroke="#065f46" points="379,-388 221,-388 221,-384 217,-384 217,-380 221,-380 221,-328 217,-328 217,-324 221,-324 221,-320 379,-320 379,-388"/>
<polyline fill="none" stroke="#065f46" points="221,-384 225,-384 225,-380 221,-380 "/>
<polyline fill="none" stroke="#065f46" points="221,-328 225,-328 225,-324 221,-324 "/>
<text text-anchor="middle" x="300" y="-372.8" font-family="Helvetica,sans-Serif" font-size="14.00">«container»</text>
<text text-anchor="middle" x="300" y="-357.8" font-family="Helvetica,sans-Serif" font-size="14.00">frontend</text>
<text text-anchor="middle" x="300" y="-342.8" font-family="Helvetica,sans-Serif" font-size="14.00">nginx :8080 (prod)</text>
<text text-anchor="middle" x="300" y="-327.8" font-family="Helvetica,sans-Serif" font-size="14.00">Vite dev :5173 (dev)</text>
</g>
<!-- browser&#45;&gt;frontend -->
<g id="edge1" class="edge">
<title>browser&#45;&gt;frontend</title>
<path fill="none" stroke="black" d="M300,-490.49C300,-465.74 300,-427.72 300,-398.24"/>
<polygon fill="black" stroke="black" points="303.5,-398.21 300,-388.21 296.5,-398.21 303.5,-398.21"/>
<text text-anchor="middle" x="332" y="-465.3" font-family="Times,serif" font-size="9.00">HTTP</text>
<text text-anchor="middle" x="332" y="-455.3" font-family="Times,serif" font-size="9.00">:8080 / :5173</text>
</g>
<!-- backend -->
<g id="node2" class="node">
<title>backend</title>
<polygon fill="#bbf7d0" stroke="#166534" points="396,-241.5 204,-241.5 204,-237.5 200,-237.5 200,-233.5 204,-233.5 204,-181.5 200,-181.5 200,-177.5 204,-177.5 204,-173.5 396,-173.5 396,-241.5"/>
<polyline fill="none" stroke="#166534" points="204,-237.5 208,-237.5 208,-233.5 204,-233.5 "/>
<polyline fill="none" stroke="#166534" points="204,-181.5 208,-181.5 208,-177.5 204,-177.5 "/>
<text text-anchor="middle" x="300" y="-226.3" font-family="Helvetica,sans-Serif" font-size="14.00">«container»</text>
<text text-anchor="middle" x="300" y="-211.3" font-family="Helvetica,sans-Serif" font-size="14.00">backend (FastAPI)</text>
<text text-anchor="middle" x="300" y="-196.3" font-family="Helvetica,sans-Serif" font-size="14.00">uvicorn 0.0.0.0:8000</text>
<text text-anchor="middle" x="300" y="-181.3" font-family="Helvetica,sans-Serif" font-size="14.00">image: adaptive&#45;backend</text>
</g>
<!-- postgres -->
<g id="node4" class="node">
<title>postgres</title>
<path fill="#e0e7ff" stroke="#3730a3" d="M192.5,-109.21C192.5,-113.92 154.63,-117.75 108,-117.75 61.37,-117.75 23.5,-113.92 23.5,-109.21 23.5,-109.21 23.5,-32.29 23.5,-32.29 23.5,-27.58 61.37,-23.75 108,-23.75 154.63,-23.75 192.5,-27.58 192.5,-32.29 192.5,-32.29 192.5,-109.21 192.5,-109.21"/>
<path fill="none" stroke="#3730a3" d="M192.5,-109.21C192.5,-104.49 154.63,-100.66 108,-100.66 61.37,-100.66 23.5,-104.49 23.5,-109.21"/>
<text text-anchor="middle" x="108" y="-89.55" font-family="Helvetica,sans-Serif" font-size="14.00">«container»</text>
<text text-anchor="middle" x="108" y="-74.55" font-family="Helvetica,sans-Serif" font-size="14.00">postgres:15</text>
<text text-anchor="middle" x="108" y="-59.55" font-family="Helvetica,sans-Serif" font-size="14.00">port 5433→5432</text>
<text text-anchor="middle" x="108" y="-44.55" font-family="Helvetica,sans-Serif" font-size="14.00">DB: adaptive_learning</text>
</g>
<!-- backend&#45;&gt;postgres -->
<g id="edge3" class="edge">
<title>backend&#45;&gt;postgres</title>
<path fill="none" stroke="black" d="M229.23,-173.41C219.16,-167.85 209.14,-161.82 200,-155.5 186.76,-146.34 173.43,-135.42 161.19,-124.53"/>
<polygon fill="black" stroke="black" points="163.48,-121.89 153.71,-117.78 158.78,-127.08 163.48,-121.89"/>
<text text-anchor="middle" x="248.5" y="-148.3" font-family="Times,serif" font-size="9.00">asyncpg / psycopg</text>
<text text-anchor="middle" x="248.5" y="-138.3" font-family="Times,serif" font-size="9.00">:5432 (SQLAlchemy)</text>
</g>
<!-- neo4j -->
<g id="node5" class="node">
<title>neo4j</title>
<path fill="#fce7f3" stroke="#9d174d" d="M396,-109.21C396,-113.92 354.32,-117.75 303,-117.75 251.68,-117.75 210,-113.92 210,-109.21 210,-109.21 210,-32.29 210,-32.29 210,-27.58 251.68,-23.75 303,-23.75 354.32,-23.75 396,-27.58 396,-32.29 396,-32.29 396,-109.21 396,-109.21"/>
<path fill="none" stroke="#9d174d" d="M396,-109.21C396,-104.49 354.32,-100.66 303,-100.66 251.68,-100.66 210,-104.49 210,-109.21"/>
<text text-anchor="middle" x="303" y="-89.55" font-family="Helvetica,sans-Serif" font-size="14.00">«container»</text>
<text text-anchor="middle" x="303" y="-74.55" font-family="Helvetica,sans-Serif" font-size="14.00">neo4j:5</text>
<text text-anchor="middle" x="303" y="-59.55" font-family="Helvetica,sans-Serif" font-size="14.00">ports 7475→7474, 7687</text>
<text text-anchor="middle" x="303" y="-44.55" font-family="Helvetica,sans-Serif" font-size="14.00">auth: neo4j/*****</text>
</g>
<!-- backend&#45;&gt;neo4j -->
<g id="edge4" class="edge">
<title>backend&#45;&gt;neo4j</title>
<path fill="none" stroke="black" d="M300.74,-173.19C301.05,-159.45 301.41,-143.13 301.76,-127.65"/>
<polygon fill="black" stroke="black" points="305.25,-127.71 301.98,-117.64 298.26,-127.56 305.25,-127.71"/>
<text text-anchor="middle" x="348.5" y="-148.3" font-family="Times,serif" font-size="9.00">bolt://</text>
<text text-anchor="middle" x="348.5" y="-138.3" font-family="Times,serif" font-size="9.00">:7687 (neo4j driver)</text>
</g>
<!-- frontend&#45;&gt;backend -->
<g id="edge2" class="edge">
<title>frontend&#45;&gt;backend</title>
<path fill="none" stroke="black" d="M300,-319.85C300,-299.8 300,-274 300,-252.29"/>
<polygon fill="black" stroke="black" points="303.5,-252 300,-242 296.5,-252 303.5,-252"/>
<text text-anchor="middle" x="327.5" y="-272.3" font-family="Times,serif" font-size="9.00">REST JSON</text>
<text text-anchor="middle" x="327.5" y="-262.3" font-family="Times,serif" font-size="9.00">:8000/api/*</text>
</g>
<!-- ci -->
<g id="node6" class="node">
<title>ci</title>
<polygon fill="#fde68a" stroke="#92400e" points="639.5,-410.5 428.5,-410.5 428.5,-297.5 639.5,-297.5 639.5,-410.5"/>
<text text-anchor="middle" x="534" y="-395.3" font-family="Helvetica,sans-Serif" font-size="14.00">Runner ubuntu&#45;latest</text>
<text text-anchor="middle" x="534" y="-380.3" font-family="Helvetica,sans-Serif" font-size="14.00">5 jobs parallèles:</text>
<text text-anchor="middle" x="534" y="-365.3" font-family="Helvetica,sans-Serif" font-size="14.00">• backend&#45;lint (ruff)</text>
<text text-anchor="middle" x="534" y="-350.3" font-family="Helvetica,sans-Serif" font-size="14.00">• backend&#45;smoke (import)</text>
<text text-anchor="middle" x="534" y="-335.3" font-family="Helvetica,sans-Serif" font-size="14.00">• frontend&#45;build (tsc+vite)</text>
<text text-anchor="middle" x="534" y="-320.3" font-family="Helvetica,sans-Serif" font-size="14.00">• graph&#45;integrity (pytest)</text>
<text text-anchor="middle" x="534" y="-305.3" font-family="Helvetica,sans-Serif" font-size="14.00">• docker&#45;validate (compose)</text>
</g>
<!-- ci&#45;&gt;backend -->
<g id="edge5" class="edge">
<title>ci&#45;&gt;backend</title>
<path fill="none" stroke="#6b7280" stroke-dasharray="5,2" d="M443.86,-297.34C416.57,-280.48 387.21,-262.36 362.18,-246.9"/>
<polygon fill="#6b7280" stroke="#6b7280" points="363.87,-243.82 353.52,-241.55 360.19,-249.78 363.87,-243.82"/>
<text text-anchor="middle" x="442" y="-272.3" font-family="Times,serif" font-size="9.00" fill="#6b7280">builds + tests</text>
<text text-anchor="middle" x="442" y="-262.3" font-family="Times,serif" font-size="9.00" fill="#6b7280">on every push</text>
</g>
</g>
</svg>
