<?xml version="1.0" encoding="UTF-8" standalone="no"?>
<!DOCTYPE svg PUBLIC "-//W3C//DTD SVG 1.1//EN"
 "http://www.w3.org/Graphics/SVG/1.1/DTD/svg11.dtd">
<!-- Generated by graphviz version 2.43.0 (0)
 -->
<!-- Title: use_case Pages: 1 -->
<svg width="2161pt" height="1866pt"
 viewBox="0.00 0.00 1196.92 1033.54" xmlns="http://www.w3.org/2000/svg" xmlns:xlink="http://www.w3.org/1999/xlink">
<g id="graph0" class="graph" transform="scale(1.81 1.81) rotate(0) translate(36 997.54)">
<title>use_case</title>
<polygon fill="white" stroke="transparent" points="-36,36 -36,-997.54 1160.92,-997.54 1160.92,36 -36,36"/>
<text text-anchor="start" x="250.96" y="-945.74" font-family="Helvetica,sans-Serif" font-weight="bold" font-size="16.00">Use Case Diagram — Intelligent Adaptive Learning Platform (Phase 1)</text>
<g id="clust1" class="cluster">
<title>cluster_system</title>
<path fill="#f8fafc" stroke="#2c3e50" stroke-dasharray="5,2" d="M242,-8C242,-8 1104.92,-8 1104.92,-8 1110.92,-8 1116.92,-14 1116.92,-20 1116.92,-20 1116.92,-853 1116.92,-853 1116.92,-859 1110.92,-865 1104.92,-865 1104.92,-865 242,-865 242,-865 236,-865 230,-859 230,-853 230,-853 230,-20 230,-20 230,-14 236,-8 242,-8"/>
<text text-anchor="middle" x="673.46" y="-851.4" font-family="Helvetica,sans-Serif" font-weight="bold" font-size="12.00">Adaptive Learning Platform (FastAPI + React + Neo4j + PostgreSQL)</text>
</g>
<g id="clust2" class="cluster">
<title>cluster_auth</title>
<path fill="#f8fafc" stroke="#2563eb" d="M265.4,-620C265.4,-620 430.4,-620 430.4,-620 436.4,-620 442.4,-626 442.4,-632 442.4,-632 442.4,-824 442.4,-824 442.4,-830 436.4,-836 430.4,-836 430.4,-836 265.4,-836 265.4,-836 259.4,-836 253.4,-830 253.4,-824 253.4,-824 253.4,-632 253.4,-632 253.4,-626 259.4,-620 265.4,-620"/>
<text text-anchor="middle" x="347.9" y="-823.2" font-family="Helvetica,sans-Serif" font-weight="bold" font-size="11.00">Authentication</text>
</g>
<g id="clust3" class="cluster">
<title>cluster_learn</title>
<path fill="#f8fafc" stroke="#7c3aed" d="M250,-396C250,-396 756,-396 756,-396 762,-396 768,-402 768,-408 768,-408 768,-600 768,-600 768,-606 762,-612 756,-612 756,-612 250,-612 250,-612 244,-612 238,-606 238,-600 238,-600 238,-408 238,-408 238,-402 244,-396 250,-396"/>
<text text-anchor="middle" x="503" y="-599.2" font-family="Helvetica,sans-Serif" font-weight="bold" font-size="11.00">Learning &amp; Graph</text>
</g>
<g id="clust4" class="cluster">
<title>cluster_quiz</title>
<path fill="#f8fafc" stroke="#059669" d="M265.4,-172C265.4,-172 1096.92,-172 1096.92,-172 1102.92,-172 1108.92,-178 1108.92,-184 1108.92,-184 1108.92,-376 1108.92,-376 1108.92,-382 1102.92,-388 1096.92,-388 1096.92,-388 265.4,-388 265.4,-388 259.4,-388 253.4,-382 253.4,-376 253.4,-376 253.4,-184 253.4,-184 253.4,-178 259.4,-172 265.4,-172"/>
<text text-anchor="middle" x="681.16" y="-375.2" font-family="Helvetica,sans-Serif" font-weight="bold" font-size="11.00">Quiz &amp; Assessment</text>
</g>
<g id="clust5" class="cluster">
<title>cluster_admin</title>
<path fill="#f8fafc" stroke="#b45309" d="M265.4,-16C265.4,-16 430.4,-16 430.4,-16 436.4,-16 442.4,-22 442.4,-28 442.4,-28 442.4,-152 442.4,-152 442.4,-158 436.4,-164 430.4,-164 430.4,-164 265.4,-164 265.4,-164 259.4,-164 253.4,-158 253.4,-152 253.4,-152 253.4,-28 253.4,-28 253.4,-22 259.4,-16 265.4,-16"/>
<text text-anchor="middle" x="347.9" y="-151.2" font-family="Helvetica,sans-Serif" font-weight="bold" font-size="11.00">Admin / Ops</text>
</g>
<!-- student -->
<g id="node1" class="node">
<title>student</title>
<text text-anchor="start" x="78.5" y="-588" font-family="Helvetica,sans-Serif" font-weight="bold" font-size="20.00">◯</text>
<text text-anchor="start" x="80.5" y="-551.8" font-family="Helvetica,sans-Serif" font-size="24.00">█</text>
<text text-anchor="start" x="56.5" y="-524.8" font-family="Helvetica,sans-Serif" font-weight="bold" font-size="14.00">Étudiant</text>
</g>
<!-- uc_register -->
<g id="node3" class="node">
<title>uc_register</title>
<ellipse fill="#dbeafe" stroke="#1e40af" cx="347.9" cy="-786" rx="86.5" ry="21.5"/>
<text text-anchor="middle" x="347.9" y="-789" font-family="Helvetica,sans-Serif" font-size="10.00">S&#39;inscrire</text>
<text text-anchor="middle" x="347.9" y="-778" font-family="Helvetica,sans-Serif" font-size="10.00">(POST /auth/register)</text>
</g>
<!-- student&#45;&gt;uc_register -->
<g id="edge1" class="edge">
<title>student&#45;&gt;uc_register</title>
<path fill="none" stroke="#1e3a8a" d="M116.1,-613.8C139.93,-656.85 179.36,-716.59 230,-752 243.86,-761.69 260.47,-768.64 276.76,-773.63"/>
</g>
<!-- uc_login -->
<g id="node4" class="node">
<title>uc_login</title>
<ellipse fill="#dbeafe" stroke="#1e40af" cx="347.9" cy="-718" rx="86.5" ry="21.5"/>
<text text-anchor="middle" x="347.9" y="-721" font-family="Helvetica,sans-Serif" font-size="10.00">Se connecter</text>
<text text-anchor="middle" x="347.9" y="-710" font-family="Helvetica,sans-Serif" font-size="10.00">(POST /auth/login)</text>
</g>
<!-- student&#45;&gt;uc_login -->
<g id="edge2" class="edge">
<title>student&#45;&gt;uc_login</title>
<path fill="none" stroke="#1e3a8a" d="M137.16,-612.1C162.55,-636.8 195.71,-665.23 230,-684 245.76,-692.63 263.94,-699.27 281.2,-704.3"/>
</g>
<!-- uc_profile -->
<g id="node5" class="node">
<title>uc_profile</title>
<ellipse fill="#dbeafe" stroke="#1e40af" cx="347.9" cy="-650" rx="86.5" ry="21.5"/>
<text text-anchor="middle" x="347.9" y="-653" font-family="Helvetica,sans-Serif" font-size="10.00">Consulter mon profil</text>
<text text-anchor="middle" x="347.9" y="-642" font-family="Helvetica,sans-Serif" font-size="10.00">(GET /auth/me)</text>
</g>
<!-- student&#45;&gt;uc_profile -->
<g id="edge3" class="edge">
<title>student&#45;&gt;uc_profile</title>
<path fill="none" stroke="#1e3a8a" d="M137.14,-582.28C164.01,-593.57 198.59,-607.43 230,-618 248.15,-624.1 268.17,-629.91 286.43,-634.86"/>
</g>
<!-- uc_modules -->
<g id="node6" class="node">
<title>uc_modules</title>
<ellipse fill="#dbeafe" stroke="#1e40af" cx="347.9" cy="-426" rx="86.5" ry="21.5"/>
<text text-anchor="middle" x="347.9" y="-429" font-family="Helvetica,sans-Serif" font-size="10.00">Parcourir modules</text>
<text text-anchor="middle" x="347.9" y="-418" font-family="Helvetica,sans-Serif" font-size="10.00">(GET /graph/modules)</text>
</g>
<!-- student&#45;&gt;uc_modules -->
<g id="edge4" class="edge">
<title>student&#45;&gt;uc_modules</title>
<path fill="none" stroke="#1e3a8a" d="M137.21,-521.46C163.12,-500.67 196.75,-476.36 230,-460 246.5,-451.88 265.29,-445.36 282.9,-440.28"/>
</g>
<!-- uc_path -->
<g id="node7" class="node">
<title>uc_path</title>
<ellipse fill="#dbeafe" stroke="#1e40af" cx="347.9" cy="-494" rx="101.79" ry="21.5"/>
<text text-anchor="middle" x="347.9" y="-497" font-family="Helvetica,sans-Serif" font-size="10.00">Parcours adaptatif</text>
<text text-anchor="middle" x="347.9" y="-486" font-family="Helvetica,sans-Serif" font-size="10.00">(GET /graph/learning&#45;path)</text>
</g>
<!-- student&#45;&gt;uc_path -->
<g id="edge5" class="edge">
<title>student&#45;&gt;uc_path</title>
<path fill="none" stroke="#1e3a8a" d="M137.23,-549.61C178.25,-538.73 238.27,-522.81 283.6,-510.79"/>
</g>
<!-- uc_content -->
<g id="node8" class="node">
<title>uc_content</title>
<ellipse fill="#dbeafe" stroke="#1e40af" cx="660.9" cy="-545" rx="99.21" ry="21.5"/>
<text text-anchor="middle" x="660.9" y="-548" font-family="Helvetica,sans-Serif" font-size="10.00">Consulter concept</text>
<text text-anchor="middle" x="660.9" y="-537" font-family="Helvetica,sans-Serif" font-size="10.00">(GET .../adaptive&#45;content)</text>
</g>
<!-- student&#45;&gt;uc_content -->
<g id="edge6" class="edge">
<title>student&#45;&gt;uc_content</title>
<path fill="none" stroke="#1e3a8a" d="M93.41,-613.78C100.61,-686.54 125.57,-816.77 212,-876 328.14,-955.59 412.34,-955.13 528.79,-876 635.9,-803.22 655.5,-627.89 659.09,-566.59"/>
</g>
<!-- uc_tutor -->
<g id="node9" class="node">
<title>uc_tutor</title>
<ellipse fill="#dbeafe" stroke="#1e40af" cx="347.9" cy="-562" rx="86.5" ry="21.5"/>
<text text-anchor="middle" x="347.9" y="-565" font-family="Helvetica,sans-Serif" font-size="10.00">Tuteur IA</text>
<text text-anchor="middle" x="347.9" y="-554" font-family="Helvetica,sans-Serif" font-size="10.00">(POST /tutor/ask)</text>
</g>
<!-- student&#45;&gt;uc_tutor -->
<g id="edge7" class="edge">
<title>student&#45;&gt;uc_tutor</title>
<path fill="none" stroke="#1e3a8a" d="M137.23,-562C171.82,-562 219.93,-562 261.34,-562"/>
</g>
<!-- uc_takequiz -->
<g id="node10" class="node">
<title>uc_takequiz</title>
<ellipse fill="#dbeafe" stroke="#1e40af" cx="347.9" cy="-338" rx="86.5" ry="21.5"/>
<text text-anchor="middle" x="347.9" y="-341" font-family="Helvetica,sans-Serif" font-size="10.00">Passer un quiz</text>
<text text-anchor="middle" x="347.9" y="-330" font-family="Helvetica,sans-Serif" font-size="10.00">(GET /quiz/{id})</text>
</g>
<!-- student&#45;&gt;uc_takequiz -->
<g id="edge8" class="edge">
<title>student&#45;&gt;uc_takequiz</title>
<path fill="none" stroke="#1e3a8a" d="M122.81,-510.21C148.22,-472.85 186.52,-423.33 230,-390 249.3,-375.2 273.48,-363.55 294.83,-355.06"/>
</g>
<!-- uc_submit -->
<g id="node11" class="node">
<title>uc_submit</title>
<ellipse fill="#dbeafe" stroke="#1e40af" cx="660.9" cy="-304" rx="95.73" ry="21.5"/>
<text text-anchor="middle" x="660.9" y="-307" font-family="Helvetica,sans-Serif" font-size="10.00">Soumettre réponses</text>
<text text-anchor="middle" x="660.9" y="-296" font-family="Helvetica,sans-Serif" font-size="10.00">(POST /quiz/{id}/submit)</text>
</g>
<!-- student&#45;&gt;uc_submit -->
<g id="edge9" class="edge">
<title>student&#45;&gt;uc_submit</title>
<path fill="none" stroke="#1e3a8a" d="M99.53,-613.54C114.12,-679.33 149.81,-790.52 230,-840 313.13,-891.3 369.97,-896.32 449.79,-840 535.36,-779.62 503.61,-719.66 528.79,-618 553.41,-518.61 512.94,-479.98 561.79,-390 576.81,-362.33 604.45,-339.36 626.57,-324.13"/>
</g>
<!-- uc_results -->
<g id="node12" class="node">
<title>uc_results</title>
<ellipse fill="#dbeafe" stroke="#1e40af" cx="347.9" cy="-270" rx="86.5" ry="21.5"/>
<text text-anchor="middle" x="347.9" y="-273" font-family="Helvetica,sans-Serif" font-size="10.00">Mes résultats</text>
<text text-anchor="middle" x="347.9" y="-262" font-family="Helvetica,sans-Serif" font-size="10.00">(GET /quiz/results)</text>
</g>
<!-- student&#45;&gt;uc_results -->
<g id="edge10" class="edge">
<title>student&#45;&gt;uc_results</title>
<path fill="none" stroke="#1e3a8a" d="M105.11,-510.29C124.27,-451.77 163.53,-357.65 230,-304 242.83,-293.65 258.69,-286.44 274.55,-281.44"/>
</g>
<!-- uc_next -->
<g id="node13" class="node">
<title>uc_next</title>
<ellipse fill="#dbeafe" stroke="#1e40af" cx="347.9" cy="-202" rx="86.5" ry="21.5"/>
<text text-anchor="middle" x="347.9" y="-205" font-family="Helvetica,sans-Serif" font-size="10.00">Prochain quiz</text>
<text text-anchor="middle" x="347.9" y="-194" font-family="Helvetica,sans-Serif" font-size="10.00">(GET /quiz/next/{id})</text>
</g>
<!-- student&#45;&gt;uc_next -->
<g id="edge11" class="edge">
<title>student&#45;&gt;uc_next</title>
<path fill="none" stroke="#1e3a8a" d="M98.49,-510.49C112.37,-438.6 147.73,-308.85 230,-236 242.1,-225.28 257.41,-217.93 272.93,-212.9"/>
</g>
<!-- admin -->
<g id="node2" class="node">
<title>admin</title>
<text text-anchor="start" x="78.5" y="-140" font-family="Helvetica,sans-Serif" font-weight="bold" font-size="20.00" fill="#92400e">◯</text>
<text text-anchor="start" x="80.5" y="-103.8" font-family="Helvetica,sans-Serif" font-size="24.00" fill="#92400e">█</text>
<text text-anchor="start" x="14.5" y="-76.8" font-family="Helvetica,sans-Serif" font-weight="bold" font-size="14.00">Enseignant / Admin</text>
</g>
<!-- admin&#45;&gt;uc_modules -->
<g id="edge14" class="edge">
<title>admin&#45;&gt;uc_modules</title>
<path fill="none" stroke="#92400e" d="M102.47,-165.77C119.78,-228.99 157.93,-334.78 230,-394 242.11,-403.95 257.07,-410.82 272.2,-415.56"/>
</g>
<!-- uc_seed -->
<g id="node15" class="node">
<title>uc_seed</title>
<ellipse fill="#fde68a" stroke="#b45309" cx="347.9" cy="-46" rx="86.5" ry="21.5"/>
<text text-anchor="middle" x="347.9" y="-49" font-family="Helvetica,sans-Serif" font-size="10.00">Seeder Neo4j</text>
<text text-anchor="middle" x="347.9" y="-38" font-family="Helvetica,sans-Serif" font-size="10.00">(seed_neo4j.py)</text>
</g>
<!-- admin&#45;&gt;uc_seed -->
<g id="edge12" class="edge">
<title>admin&#45;&gt;uc_seed</title>
<path fill="none" stroke="#92400e" d="M179.1,-90.5C215.14,-80.94 255.81,-70.16 288.09,-61.6"/>
</g>
<!-- uc_stats -->
<g id="node16" class="node">
<title>uc_stats</title>
<ellipse fill="#fde68a" stroke="#b45309" cx="347.9" cy="-114" rx="86.5" ry="21.5"/>
<text text-anchor="middle" x="347.9" y="-117" font-family="Helvetica,sans-Serif" font-size="10.00">Stats du graphe</text>
<text text-anchor="middle" x="347.9" y="-106" font-family="Helvetica,sans-Serif" font-size="10.00">(GET /graph/stats)</text>
</g>
<!-- admin&#45;&gt;uc_stats -->
<g id="edge13" class="edge">
<title>admin&#45;&gt;uc_stats</title>
<path fill="none" stroke="#92400e" d="M179.1,-114C205.73,-114 234.89,-114 261.33,-114"/>
</g>
<!-- uc_path&#45;&gt;uc_content -->
<g id="edge16" class="edge">
<title>uc_path&#45;&gt;uc_content</title>
<path fill="none" stroke="#6b7280" stroke-dasharray="5,2" d="M428.99,-507.13C472.57,-514.28 526.59,-523.14 571.42,-530.49"/>
<polygon fill="#6b7280" stroke="#6b7280" points="570.99,-533.97 581.42,-532.13 572.12,-527.06 570.99,-533.97"/>
<text text-anchor="middle" x="505.79" y="-524.8" font-family="Times,serif" font-size="9.00" fill="#6b7280">«include»</text>
</g>
<!-- uc_remediate -->
<g id="node14" class="node">
<title>uc_remediate</title>
<ellipse fill="#dbeafe" stroke="#1e40af" cx="986.46" cy="-304" rx="114.42" ry="21.5"/>
<text text-anchor="middle" x="986.46" y="-307" font-family="Helvetica,sans-Serif" font-size="10.00">Remédiation</text>
<text text-anchor="middle" x="986.46" y="-296" font-family="Helvetica,sans-Serif" font-size="10.00">(GET /graph/remediation/{id})</text>
</g>
<!-- uc_submit&#45;&gt;uc_remediate -->
<g id="edge15" class="edge">
<title>uc_submit&#45;&gt;uc_remediate</title>
<path fill="none" stroke="#6b7280" stroke-dasharray="5,2" d="M756.79,-304C789.63,-304 826.94,-304 861.75,-304"/>
<polygon fill="#6b7280" stroke="#6b7280" points="861.98,-307.5 871.98,-304 861.98,-300.5 861.98,-307.5"/>
<text text-anchor="middle" x="816" y="-306.8" font-family="Times,serif" font-size="9.00" fill="#6b7280">«include»</text>
</g>
<!-- uc_next&#45;&gt;uc_submit -->
<g id="edge17" class="edge">
<title>uc_next&#45;&gt;uc_submit</title>
<path fill="none" stroke="#6b7280" stroke-dasharray="5,2" d="M400.95,-219.07C454.73,-236.71 538.72,-264.26 596.38,-283.17"/>
<polygon fill="#6b7280" stroke="#6b7280" points="595.51,-286.57 606.11,-286.36 597.69,-279.92 595.51,-286.57"/>
<text text-anchor="middle" x="505.79" y="-261.8" font-family="Times,serif" font-size="9.00" fill="#6b7280">«extend»</text>
</g>
</g>
</svg>
